<svg xmlns="http://www.w3.org/2000/svg" width="960" height="540" viewBox="0 0 960 540">
  <rect width="960" height="540" rx="24" fill="#07121f"/>
  <path d="M0 430 C190 350 278 502 456 404 C644 300 756 350 960 246 L960 540 L0 540 Z" fill="#0f766e" opacity=".55"/>
  <path d="M130 145 H830 V392 H130 Z" fill="#0b1728" stroke="#5eead4" stroke-width="3"/>
  <g fill="none" stroke="#5eead4" stroke-width="4">
    <path d="M208 334 C278 224 350 304 420 204 S600 278 690 160 S782 214 814 140"/>
    <circle cx="208" cy="334" r="12" fill="#5eead4"/>
    <circle cx="420" cy="204" r="12" fill="#5eead4"/>
    <circle cx="690" cy="160" r="12" fill="#5eead4"/>
    <circle cx="814" cy="140" r="12" fill="#5eead4"/>
  </g>
  <text x="132" y="88" fill="#e8fffb" font-family="Geist, Arial, sans-serif" font-size="42" font-weight="700">MACHINE LEARNING</text>
  <text x="134" y="445" fill="#b8fff4" font-family="Geist, Arial, sans-serif" font-size="25">Python | Colab | Training | Evaluation</text>
</svg>
